<svg xmlns="http://www.w3.org/2000/svg" height="204.147" width="403.88" xml:space="preserve"><path style="fill:#393536;fill-opacity:1;fill-rule:nonzero;stroke:none" d="M333.32 874.891h18.461v-92.696c0-31.691 9.629-39.718 27.082-39.718 17.453 0 27.09 8.027 27.09 39.718v92.696h18.457v-91.887c0-40.125-14.847-55.977-45.547-55.977-30.695 0-45.543 15.852-45.543 55.977v91.887M580.898 874.891V730.035h-25.269l-57.191 125.59h-.403v-125.59h-16.449v144.856h26.086l56.375-123.996h.402v123.996h16.449M659.34 730.035h-18.457v144.86h18.457v-144.86M768.699 730.035h-22.066l-41.93 144.856h20.047l33.109-127.395h.403l33.91 127.395h18.859l-42.332-144.856M853.965 730.035v144.856h74.64V858.84h-56.179v-46.547h52.168v-16.051h-52.168V746.09h57.379v-16.055h-75.84M996.418 812.691h27.702c13.22 0 19.64 11.442 19.64 24.082 0 10.43-5.21 22.067-19.45 22.067h-27.892zm0-16.05v-66.606h-18.465v144.86h49.967c25.68 0 34.71-18.063 34.71-36.125 0-17.051-9.43-30.086-26.48-33.098v-.402c16.64-2.61 22.66-8.227 23.66-37.317.2-6.219 2.22-28.894 5.02-37.918h-19.25c-5.21 10.031-4.01 28.887-5.62 48.156-1.41 17.641-15.65 18.45-21.87 18.45h-21.672M1128.23 773.172v-4.211c0-19.668 12.44-25.879 24.28-25.879 14.65 0 25.89 6.211 25.89 23.469 0 32.094-65.01 28.484-65.01 72.023 0 25.68 18.26 39.324 42.54 39.324 26.48 0 41.32-12.843 40.12-42.332h-19.27c.21 15.852-4.81 26.282-22.26 26.282-11.04 0-22.28-5.61-22.28-21.262 0-31.914 65.01-27.289 65.01-73.227 0-30.507-21.06-40.332-44.94-40.332-42.73-.398-42.73 32.305-42.33 46.145h18.25M1270.49 730.035h-18.46v144.86h18.46v-144.86M1410.73 874.891V858.84h-38.13V730.035h-18.45V858.84h-38.12v16.051h94.7M1511.65 918.426l-26.28-28.293h-13.45l17.86 28.293zm-57.78-188.391v144.848h74.64v-16.039h-56.19v-46.547h52.17v-16.051h-52.17V746.09h57.39v-16.055h-75.84M1665.74 746.09h17.45c25.69 0 35.11 9.629 35.11 43.332v29.297c0 29.285-9.01 40.117-28.29 40.117h-24.27zm-18.46 128.793h44.54c18.46 0 31.7-6.621 38.92-22.07 5.82-12.227 6.43-41.118 6.43-45.735 0-30.898-2.81-48.75-8.83-58.39-7.83-12.43-22.47-18.653-47.75-18.653h-33.31v144.848M1793.54 730.035v144.856h74.63V858.84H1812v-46.547h52.16v-16.051H1812V746.09h57.38v-16.055h-75.84M685.145 525.398h30.785c51.328 0 66 26.395 65.508 54.247-.493 31.281-19.059 50.343-65.508 50.343h-30.785zm36.171 145.633c67.438 0 109.469-35.664 109.469-93.347 0-38.606-20.027-67.434-55.719-81.614 30.309-20.05 48.872-50.84 74.297-92.379 14.184-22.972 22.485-34.203 45.45-65.992h-57.184l-43.981 68.442c-43.992 68.429-64.035 76.238-88.46 76.238h-20.043v-144.68h-47.887v333.332h84.058M1120.62 628.035H979.363V527.352h136.377v-43.024H979.363V380.719H1125v-43.008H931.453v333.332h189.167v-43.008M1484.25 337.711h-41.05l-222.88 256.602V337.711h-44.96v333.332h38.11l225.82-258.063v258.063h44.96V337.711M1865.95 337.711h-41.05l-222.88 256.602V337.711h-44.96v333.332h38.13l225.8-258.063v258.063h44.96V337.711M2128.41 628.035h-141.25V527.352h136.37v-43.024h-136.37V380.719h145.64v-43.008h-193.53v333.332h189.14v-43.008M2341.98 597.73c-28.34 26.875-55.7 34.708-78.18 34.708-30.8 0-52.79-16.133-52.79-39.59 0-64.039 144.18-63.059 144.18-169.11 0-52.297-39.59-90.418-93.34-90.418-36.18 0-65.51 9.77-93.36 30.789v60.602c24.43-31.281 55.23-48.391 87.97-48.391 37.14 0 54.25 23.461 54.25 42.032 0 68.918-144.18 76.738-144.18 168.128 0 54.258 40.08 88.958 101.18 88.958 25.41 0 50.83-7.825 74.27-23.458v-54.25M2695.73 713.641l-.25.164v12.238h-20.72l-2.23-6.867c-15.72-20.488-68.59-82.52-153.99-114.414l6.96-20.879c26.44 10.312 49.14 22.129 68.79 34.297V344.859h101.19V713.23c.06.106.23.348.25.411M2188 822.586l1.03-.098.01.078-.92.227zm-.57 1.781c-.12 2.309-1.81 2.348-3.44 2.336l-.15-1.476c.8-.239 1.27.367.94 1.23.6-2.211 1.78-3.156 3.34-3.664.31.68.8 1.395.6 1.922zm-10.39 7.559c.2-.469.65-.012 1.13.336l-1.48.953zm-7.52-7.27c-.37-.152.82 2.328.08 2.039-1.47.02-3.09-.941-4.22-.511-.76-.403-.5 2.718-1.25 2.32-1.58-.289-5.96-2.731-4.04-3.191 2.89-.559 5.02-.379 7.69-.848h7.15l1.49-1.09-1.61 2.289c-.7 1.242-3.47-1.269-5.29-1.008m5.16 9.547h.02l-.96.09.45-1.117zm.37.09-.35-.09.59-.082zm26.27 43.32c-1.88.641-3.07 2.731-2.78 5.879 3.23.055 3.4-2.75 2.78-5.879m-63.73-35.668c-.92-.351-1.97.332-2.73 1.813 1.25.965 2.09-.313 2.73-1.813m97.29-16.738c-2.14 2.379-3.07 5.387-2.48 9.781-.11-1.804-1.41-2.453-2.62-1.316l1.42 2.473c2.93-1.43 5.72-3.09 3.91-7.442l2.42-.629c-.15-1.148-1.54-1.969-2.65-2.867l1.34-1.383c1.52 2.453 2.15 7.852 2.15 7.864-4.47 6.859-9.06 13.046-13.03 19.496-1.17-.172-2.34-.579-2.36.379l.29 2.511-1.91 2.692-1.07.636h-.03c-.86.094-1.36-.558-1.7-1.328l-.02 2.293-.42.457c.08-.047.17-.113.27-.16.04-.109.14-.199.15-.297l1.36-.746.05-.035v.008l.34-.192.72-.117-4.32 6.27-1.33.918c-1.66.965-3.46 1.738-2.4 4.273l-.84 1.07-.17-.503v.695l-3.52 4.578c-2.39 2.922-4.53 6.176-7.3 8.969-16.55 19.328-36.32 32.816-61.84 44.152-14.07 5.707-29.16 11.277-47.87 9.168-39.42-10.109-54.07-42.992-56.49-86.523-.31-15.336 12.91-32.899 22.85-42.348-.83-3.418-1.67-6.641-2.81-9.281-2.21-5.727.68-18.668 8.87-27.524 18.51-8 13.69 10.489 14.76 9.668 4.03 9.199-.21 6.551 3.56 14.77-2.38-5.153-7.26 2.246-.41 7.367 10.06 8.453 2.75 13.637 7.34 14.398 1.37.153 1.8 1.153 2.74 1.993 8.53.546 17.46 8.019 30.7 6.5 3.32-.114 6.43 2.75 9.53 3.703 2.21.078 4.32-1.653 6.04-1.946 2.73-.437 5.25.121 7.79.922-2.67-.07-4.65-.492-7.52-.418-1.91.16 1.85 3.266 3.3 3.809.68.508.96-2.633 1.62-2.11 1.16-.191 2.5.829 3.99 1.383.68.508 0-2.175.33-1.914 1.89.438 4.04 3.164 4.96 2.133l1.93-1.984 1.35-.629 1.12.351 8.78 1.559.04.238c-1.54.231-2.85.934-3.84 3.024.45-.801.13-1.489-.67-1.395l-.15 1.492c1.58.301 3.2.571 3.72-1.699 0 0 .78.399 1.18.59.29-.488-.04-1.289-.24-2.012l.96-.078c-.1 1.461-1.44 3.77-1.46 3.77l-10.69 3.89c-.41-.418-.76-.961-1.04-.539l-.56 1.231-1.49.629-.6-.11-.02-.023-.31-1.098-.65.902.76.168h.01l.21.051.31.188-3.53 1-.81-.086c-.95-.211-1.87-.434-2.16.968l-.63.196.06-.266-.18.301-2.69.82-5.39 1.617c-12.01 2.993-23.54 2.832-36.76 1.27-3.71-.34-7.44-1.039-11.25-1.969-1.25 2.832-2.16 6.309-1.23 12.281-.61-11.562-15.64 1.629-3.46 11.469 16.9 6.481 6.8 16.27 17.74 21.281 1.27.348 2.54.477 3.92 1.34 8.99-3.461 33.68-2.507 53.95-19.25 5.55-3.84 13.32-3.847 19.59-6.062 4.04-2.168 5.76-7.297 8.2-9.949 3.97-4.039 8.87-6.11 13.54-8.411-4.05 3.582-7.95 5.204-12.58 8.86-2.97 2.594 6.62 2.781 9.61 1.82 1.66-.039-1.29-5.238.35-5.238 1.68-1.777 4.8-2.043 7.68-3.129 1.62-.125-2.43-3.383-1.61-3.445 3.19-1.977 10.22.027 10.67-2.696l1.04-5.472 1.52-2.637 2.22-.875c5.39-2.117 10.96-5.277 15.51-8.816zm17.65-6.402.9-.867-.26.597zm-1.95-.942c.5.711 1.13 1.25 1.93.961l.02-.019-1.45 1.367zm-1.31 4.969 1.81-2.66c-.07 1-.66 1.906-1.81 2.66m4.55-10.508c-.19-.969 1.03-.82 2.22-.914l-1.36 3.375zm-20.06-1.82c-.76.219 3.89 2.613 2.25 3.051-2.7 1.652-5.92 2.449-7.23 4.601-1.58.371 2.37 4.949.78 5.336-2.61 1.715-12.19 3.512-9.68.352 3.72-4.711 6.97-7.348 10.62-11.539 4.18-2.727 7.99-5.61 11.83-8.91.8-1.071.98-2.34 1.21-3.59l-.11 5.578c.19 2.82-7.03 2.422-9.67 5.121m29.75-24.727c-.77.391-2.31 1.164-2.31 1.164 2.52 3.832.06 6.122-2.32 8.274l-1.96-2.16c.87-1.434 2.31-1.102 2.84.711-1.72-4.317-1.06-7.383.6-10.215 1.25.644 2.81 1.113 3.15 2.226m-2.15-3.972.1.117-1.1 1.629-.41-.223 1.41-1.523" transform="matrix(.13333 0 0 -.13333 0 204.147)"/><path style="fill:#393536;fill-opacity:1;fill-rule:nonzero;stroke:none" d="m2538.7 1132.3-.02.41-6.6 2.61-.41-1.14zm-152.83 29.45c4.43 2.54 7.64 6.14 11.13 9.34-4.02-1.2-7.85-4.61-11.13-9.34m19.84 16.8-1.79-2.15 4.58 3.24zm.32-7.56c-2.39 1.15-4.18 2.68-2.19 5.33l.08.08-6.92-5.31c3.17.62 6.23.54 9.03-.1m85.95-257.377c-9.57 2.559-9.31 11.356-8.55 20.383 6.38-2.851 9.74-11.164 8.55-20.383M2384.15 1089.8c.14-1.74.35-3.48.6-5.19l-4.94-3.7c-4.53 9.07-8.96 21.35 3.23 28.57.08-.07-2.58 4.81-3.34 7.33 2.03 1.6 4.49 1.39 6.99.9-2.01-7.51-2.87-14.76-2.81-21.78a97.615 97.615 0 0 0-5.18-9.35c1.74 3.17 3.85 4.1 5.45 3.22m135.84 74.59c-2.27.22-4.8 1.47-6.54 3.77 3.18.55 5.17-1.37 6.54-3.77m9.06-15.88c1.04.1 1.6-1.54 2.27-2.81-2.7-.13-5.61-.3-5.61-.3-.27 1.1-.68 2-1.05 2.98 1.64.17 3.3.23 4.39.13m27.29-198.905c-14.85 15.571-24.96 36.93-37.4 49.047-17.68 17.718-44.93 31.598-57.12 34.938 12.12-7.91 34.46-19.11 53.95-35.684 13.85-11.82-21.7-3.968-32.44.571-5.74.699-1.97 17.393-7.87 18.183-9.71 7.59-17.8 6.82-26.58 9.25-4.83.08 5.06 9.82 2.73 9.75-5.31 3.07-15.19 2.46-22.07 3.63-.22 1.64-.31 3.28-.14 4.92 2.47 17.63-10.46 33.08-12.26 48.69 3.48-1.9 6.13-2.02 5.74 1.24-1.42 11.09-2.48 17.41 1.03 24.66 0 1 .1 2.03.3 3.06 5.33 7.72 12.13 15.15 20.49 20.66 3.8.37 7.3-.85 10.68-1.84-2.34 1.21-4.88 2.48-7.58 3.77 9.38 5.37 20.53 8.28 33.66 6.54 7.94-.67 15.99 1.28 23.75.64 2.98-.46 5.82-1.68 8.49-3 5.49-5.9 11.27-10.43 18.38-13.31.78 1.98 1.84 3.97 2.34 5.94 1.51-.37 3.03-.81 4.54-1.11-1.57.56-3.03 1.09-4.46 1.56.12.63.2 1.27.16 1.88 2.34-.61 4.92-.64 7.67-1.08 1.66.06-.07-2.94.76-2.9 4.34-1.52 9.63.62 11.78-1.66l4.69-4.46 3.13-2.21 2.61-.6c6.35-1.41 13.26-3.98 19.63-6.6l.1.31c-3.44 1.93-6.39 4.37-8.59 8.43 1.03-1.64.33-2.3-1.45-1.34l-.37 2.26c3.51-1.03 6.91-2.34 8.26-6.25 0 0 1.68-.21 2.52-.33.64-1.03-.02-1.87-.37-2.77l2.07-1.09c-.33 2.33-3.36 7.1-3.36 7.1-8.26 5.65-16.25 10.71-24.1 15.56-.96-.23-1.78-.67-2.39.13l-1.32 2.13-3.44 2.12-1.37.46-.04-.01c-.84.02-.89-.56-.74-1.23l-1.43 1.9-.72.29.37-.08c.1-.08.24-.13.35-.21l1.71-.51.05-.02.45-.13.73-.06-8.05 4.56-1.88.58c-2.17.54-4.37 1.07-4.94 3.18l-1.44.82.15-.43-.43.57-6.35 3c-4.21 1.84-8.31 4.16-12.9 5.61-28.15 11.35-61.08 13.83-91.14-4.22-15.41-9.64-29.04-23.28-36.54-41.15-.16-.43-.23-.86-.37-1.29-7.99-2.77-17.31-12.61-16.72-13.09-4.47-31.01 5-60.15 19.45-84.25 3.38-.4 6.72.15 6.88-3.19-.63-3.14-.35-5.7.29-8.03l7.46-9.9 3.65-2.63h.12c2.25-.59 3.34.83 3.98 2.77.14-.22.32-.45.47-.67.16-2 .65-3.898 1.7-5.585a41.172 41.172 0 0 0 4.26-2.7c-1.17.649-2.42 1.27-3.67 1.887-.2.273-.43.523-.59.813l-6.27 3.485-2.24.71c5.74-7.652 13.05-13.664 19.61-20.703 1.83-1.121 3.65-2.371 5.13-2.922 6.1-2.539 12.35-5.258 11.16-12.91l3.4-3.301.07 1.523.53-2.089 13.53-14.711c8.72-9.61 16.66-20.079 24.19-30.852 23.28-34.922 41.22-72.297 42.91-107.699 2.11-36.414-20.9-56.66-46.92-45.528-32.01 13.887-61.38 53.696-82.48 91.254-17.38 31.305-36.54 60.344-54.61 90.286l.45-.325s-55.37 160.287-156.19 171.597c-18.14 2.04-34.65 3.03-49.79 3.16.41 5.97-3.37 10.96-6.69 15.76l.76-2.72c1.81-2.95 2.4-3.13 1.09-.28 2.48-4.09 3.42-8.4 4.18-12.75-40.43.25-70.57-5.95-93.46-16.79-2.71 1.2-5.54 2.17-8.44 2.86-40.37 12.03-25.4 45.13-25.4 45.13-115.55-102.4-124.44-174.103-117.21-210.935 1.6-10.778 5.23-20.278 10.99-27.797.37-.504.59-.793.59-.793l.04.058c2.7-3.379 5.74-6.414 9.33-8.906 32.06-22.402 87.7 1.758 125.53 53.906 44.57-16.949 51.18 17.883 102.7 5.211-39.1 6.992 24.69 42.406 39.49-.097 4.41-29.372 3.81-32.243 19.04-50.012 18.44-24.348 47.03-57.262 62.25-89.52 7.97-16.929 21.76-31.254 35.37-49.457 34.94-48.527 65.76-101.328 170.04-125.039 57.19-10.91 129.24 27.52 150.27 83.516 22.99 54.754 13.34 99.68 3.68 137.933-13.58 40.411-42.64 62.579-65.53 81.957m76.5 138.375-.15-.27 1.95-1.35.02.1zm.94 2.66c-.8.29-2.4.88-2.4.86-.49 4.29-3.91 5.98-7.09 7.77l-.06-2.34c1.6-1.27 2.44-.75 1.68 1.05 1.56-4.33 4.02-7.28 6.93-10 .53.81 1.37 1.49.94 2.66m-35.16 32.95 3.19-2.23c-.73.88-1.74 1.64-3.19 2.23m5.29-3.23.01-.02-2.11 1.02 1.13-2.09c-.06.7.1 1.25.97 1.09m.73-.16-.72.14 1.3-.66zm-195.76 49.64 3.61-1.43c-.72.45-2.11.91-3.61 1.43m30.17 15.15c-5.19-.21-10.55-1.13-15.86-1.77 2.87-.47 5.77-1.53 8.6-3.51 3.43-1.1 4.82 2.54 7.26 5.28m172.48-70.93-3.28 2.9.92-2.34c.49-.9 1.37-.62 2.36-.56m-30 8.32c-3.43 1.19-13.2 2.28-8.84-.47 6.65-3.95 11.36-5.98 17.24-9.75 5.41-2.21 10.67-4.41 15.98-7.15l3.4-3.3-3.87 5.29c-1.78 2.62-7.31 1.59-11.5 3.75-.82.13 1.42 2.78-.22 3.05-3.36 1.31-6.64 1.83-9.2 3.75-1.64.2-1.33 4.63-2.99 4.83m-474.78 34.14c-2.05 1.48-4.47 2.25-6.72 3.36l3.22-1.99zm-15.75 6.56 2.06-1.4c-.37.27-1.39 1-2.06 1.4m-3.41 1.55c-1.76.68-3.85 1.38-6.33 2.01zm4.9-1.33-1.11.27 2.3-.82zm51.66 8.22c-5.31 6.07 5.43-2.84 7.72-7.91.13-.41.25-.92.38-1.43-.99.69-1.95 1.21-2.9 1.77a36.032 36.032 0 0 1-5.2 7.57m9-18.15c-.35-.62-.68-1.23-.64-1.7l-.04.32c-.14.76-.16 1.52-.16 2.26.3-.27.55-.6.84-.88m-77.03 17.11c6.7 1.09 13.19 3.45 20.34 2.27-3.07.27-2.72.66.79.82l2.7-.67c-6.11-.13-11.93-1.48-17.69-1.77 0 0-2.5-.84-3.73-1.24-1.92-.16-1.94.3-2.41.59l-3.94-.88c3.01-.15 11.87.65 11.87.65 16.64 3.32 33.3 2.4 47.82-3.18 1.2-.18 2.14-.18 3.57-.91l3.16-1.87 5.77-3.59 2.1-1.15.06-.01c1.18-.56 1-.18.45.41l2.62-2.63c.57-.48 1.17-.96 1.78-1.43-.38.33-.82.65-1.25.97-.18.14-.38.3-.53.46l-.9.63-1.56 1.24.7-.62-1.37.98-1.03.48c2.34-1.64 4.53-3.49 6.58-5.45.02-.97.02-1.93.26-2.88l.19-1.69v-.1c.88.34 1.93.72.16.38l-.12 1.29c.1-.56.86-.9 2.95-.7.16-.18.33-.34.47-.5-1.68-.38-2.8-.62-3.42-.74l.02-.06c1.27.28 2.38.55 3.4.79.23-.28.53-.51.74-.79.59-1.72 4.33-.15 2.54.9l-.06.65c0 .11-.02.21-.02.32.84.17 1.8.39 2.85.64a70.057 70.057 0 0 1-3.1 3.25c-.06 2.04-.12 3.89-.38 5.26l-.87 2.77.06-.58-.22 1.07c-.86 4.07-3.63 7.25-5.6 10.8-4.3 5.65-9.69 10.43-15.63 14.59 1.8-1.52 3.77-3.82 4.39-4.39-1.52.39-6.01 5-7.46 5.41.43.8 1.58.21 2.84-.82-.67.44-1.22.99-1.86 1.42 15.7-4.62 44.96-15.13 58.4-34.71 3.46-3.73 6.41-7.94 9.22-12.2-.18-1.04-.33-2.09-.57-3.13l-.19-1.19c5.7.52-8.32-.78 3.37.28l1.43-2.39c2.58-.02-4.28-2.71 6.06-.56l.5 2.46c.06.41.16.82.26 1.23 1.28.13 2.54.23 4.04.38l-.02.03-.06.1-.1.19-.21.37-.39.74-1.64 2.74-.57.86c.16 1.07.26 2.15.18 3.28.46 5.9-.71 11.93-2.86 17.62 8.56-6.98 15.79-15.72 22.23-24.61 3.77-1.88 3.71-5.82 5.18-8.93-.75-.02-1.12-.04 0-.02 1.42-3 4.26-5.25 13.44-4.05.66 1.48 1.09 2.94 1.52 4.4.47.01.84.02 1.33.03l-.1.17-.2.33-.41.67-.13.24c1.42 5.56 1.48 11.01 1.56 16.32-.02 2.52-.23 4.94-.41 7.39 2.27-.89 4.37-1.85 4.75-3.94 9.56-8.4 18.82-17.06 26.52-27.07 15.84-19.58 27.71-42.6 34.18-68.3 5.86-19.4 12.11-56.8 11.44-76.444 1.49-25.972 7.91-13.273 8.62-11.851 5.45 15.98 3.94 29.105.9 60.785 1.15-14.5-6.1 21.68-11 42.2-5.76 32.95-36.11 72.09-68.26 96.53l-6.08 4.84-3.14 2.44-.2.15-.08.09-.07.03c11.54 7.83-15.74-10.64-12.93-8.75v-.03l.09-.4.16-.84.31-1.81c.71-4.3 1.35-8.95 1.55-13.67l-.1.15c-9.61 12.09-20 24.06-35.94 32.03l-1.44.77-.73.38-.09.05-.04.02c8.03 13.59-10.98-18.5-9.03-15.2l.1-.07 1.17-1.2 2.43-3.26c.15-.24.25-.5.4-.74-4 4.31-8.22 8.47-12.88 12.36-14.67 10.66-30.46 17.63-46.08 17.48l-4.2.51-2.13.3-1.05.14-.53.08-.14.02h-.02c-1.34-5.25 3.03 11.76-3.04-11.8h.02l.02-.01.04-.02.17-.09 5.67-3.99c3.65-2.9 6.83-6.02 9.1-8.87 2.24-2.46 3.94-5.02 5.29-7.59-5.8 3.23-11.08 4.59-15.18 6.26-3.8 1.78-7.28 3.3-10.89 3.9l-6.96 1.32-4.65.42c-11.3-.59-23.9-2.01-35.13-5.64zm15.22-6.89.04-.02-3.79 1.06 3.41-1.55c-.7.45-.97.76.34.51m-20-.8 8.18-1.88c9.36-2.34 18.46-4.92 27.23-9.57l6.72-4.31-8.85 6.23c-4.4 2.69-10.82 3.73-18.42 6.01-1.21.22-.49 1.52-2.97 2-4.73 4.82-12.97-5.38-13.92 10.4 2.54.83 6.97.06 9.43.88 5.8 2.13 21.52 5.61 12.13 4.65-6.93-1.44-12.62-2.72-18.13-3.96l-4.1-.94c-.92-17.93 1.9-5.32 2.7-9.51m90.82-9.18-3.3 3.43 3.45-3.84.53-.71c.06.02.08.03.16.05zm.8-1.29.16-.21c1.99.52.84.35-.16.21m.16-.21c-.79-.22-2.02-.52-3.97-.98 1.17.28 2.46.57 3.98.95zm-.16.21-.12.17c-1.29-.35-.66-.29.12-.17m-10.45-2.68-.04.27c-.7-.27-1.27-.52.04-.27" transform="matrix(.13333 0 0 -.13333 0 204.147)"/></svg>